<svg fill="none" height="512" viewBox="0 0 24 24" width="512" xmlns="http://www.w3.org/2000/svg"><path d="m6 3.25c-1.51878 0-2.75 1.23122-2.75 2.75v12c0 1.5188 1.23122 2.75 2.75 2.75h12c1.5188 0 2.75-1.2312 2.75-2.75v-12c0-1.51878-1.2312-2.75-2.75-2.75z" fill="#f44336"/><path clip-rule="evenodd" d="m3.25 6c0-1.51878 1.23122-2.75 2.75-2.75h12c1.5188 0 2.75 1.23122 2.75 2.75v12c0 1.5188-1.2312 2.75-2.75 2.75h-12c-1.51878 0-2.75-1.2312-2.75-2.75zm2.75-1.25c-.69036 0-1.25.55964-1.25 1.25v12c0 .6904.55964 1.25 1.25 1.25h12c.6904 0 1.25-.5596 1.25-1.25v-12c0-.69036-.5596-1.25-1.25-1.25z" fill="#000" fill-rule="evenodd"/></svg>